<?xml version="1.0" encoding="UTF-8" standalone="no"?>
<!-- Created with Inkscape (http://www.inkscape.org/) -->

<svg
   width="198mm"
   height="230mm"
   viewBox="0 0 198 230"
   version="1.1"
   id="svg5"
   xml:space="preserve"
   inkscape:version="1.2.1 (9c6d41e410, 2022-07-14)"
   sodipodi:docname="logo.svg"
   xmlns:inkscape="http://www.inkscape.org/namespaces/inkscape"
   xmlns:sodipodi="http://sodipodi.sourceforge.net/DTD/sodipodi-0.dtd"
   xmlns="http://www.w3.org/2000/svg"
   xmlns:svg="http://www.w3.org/2000/svg"><sodipodi:namedview
     id="namedview7"
     pagecolor="#ffffff"
     bordercolor="#000000"
     borderopacity="0.25"
     inkscape:showpageshadow="2"
     inkscape:pageopacity="0.0"
     inkscape:pagecheckerboard="0"
     inkscape:deskcolor="#d1d1d1"
     inkscape:document-units="mm"
     showgrid="false"
     inkscape:zoom="0.36257717"
     inkscape:cx="-33.096403"
     inkscape:cy="732.25791"
     inkscape:window-width="1920"
     inkscape:window-height="1001"
     inkscape:window-x="-9"
     inkscape:window-y="-9"
     inkscape:window-maximized="1"
     inkscape:current-layer="layer1" /><defs
     id="defs2" /><g
     inkscape:label="Layer 1"
     inkscape:groupmode="layer"
     id="layer1"><path
       style="fill:none;stroke:#000000;stroke-width:1.23231;stroke-dasharray:none"
       d="m 2.9716011,172.99464 c 3.681051,-9.1403 5.0952881,-20.21161 8.5809969,-29.4681 8.558972,-22.72875 16.253065,-23.8568 17.893705,-24.54562 11.048356,-4.63866 20.042204,-7.77297 20.487965,-7.31713 0.815851,-1.62692 1.960094,-3.06252 3.592044,-4.3903 2.435935,-1.98187 0.82202,-8.529361 0.798233,-8.913578 -0.164485,-2.657071 1.309568,-2.311939 1.835848,-2.326995 -1.191637,2.316055 1.719061,2.424492 2.820509,2.726102 12.111945,3.316691 31.863717,2.723101 34.723145,10.510061 -3.025366,2.93883 -3.35652,6.07008 -3.991188,9.17967 3.769042,0.79212 20.107151,8.81254 23.881801,11.17687 -4.71529,5.91038 -9.28566,30.37636 -3.95684,40.33579 0.46212,7.52025 0.0568,7.17931 -0.17545,11.87592"
       id="path2308"
       sodipodi:nodetypes="csscsscsccccc" /><path
       style="fill:none;stroke:#000000;stroke-width:1.23231;stroke-dasharray:none"
       d="m 50.067306,111.66379 c 0.45492,3.71014 7.481035,5.49931 14.7673,6.31933 7.602364,0.85558 8.111208,0.8687 11.441328,1.59646 3.673449,0.80281 7.758666,1.17083 13.503435,-1.19734"
       id="path2406"
       sodipodi:nodetypes="cssc" /><path
       style="fill:none;stroke:#000000;stroke-width:1.23231;stroke-dasharray:none"
       d="m 29.100912,119.14062 c -7.503765,6.34166 -9.045424,28.63086 -8.127676,33.98289 1.310721,7.64368 1.735489,10.84609 1.548594,19.82949"
       id="path2408"
       sodipodi:nodetypes="csc" /><path
       style="fill:none;stroke:#000000;stroke-width:1.37729;stroke-dasharray:none"
       d="m 57.092174,92.46853 c -3.10141,-4.200953 -4.61504,-7.751795 -7.055445,-14.204954 -4.352287,-11.508737 -4.77976,-19.134977 -3.856977,-24.176597 1.762539,-9.629617 3.479763,-19.135093 15.716875,-25.412547 6.41272,-3.289631 11.204699,-3.373859 14.761511,-3.47112 20.64289,1.07036 26.849222,6.8258 36.313302,14.208336 11.75003,9.165747 9.20591,14.747476 9.12506,19.472996 -0.0847,4.947742 -1.52267,6.086567 -4.51548,6.020632 -7.40162,-0.01827 -8.64683,9.416351 -11.38283,13.828664 -1.50278,2.423485 -4.43025,11.481457 -5.07996,0.658515 -1.01545,-16.915884 -17.249321,-7.323443 -18.066226,1.439031 -0.989519,10.613782 -7.358739,14.482479 -12.319309,14.365158 -4.139079,0.494193 -8.750006,-0.619149 -13.640521,-2.63403"
       id="path2410"
       sodipodi:nodetypes="cssscsscssscc" /><path
       style="fill:none;stroke:#000000;stroke-width:0.797375;stroke-dasharray:none"
       d="m 99.048616,76.382132 c -0.689864,-3.261193 -2.890183,-4.247981 -5.83254,-1.881458 -5.002826,4.023758 -4.652418,7.625649 -4.327368,11.006491 0.164192,1.707718 0.723834,2.631398 0.922989,3.5976 0.937585,4.54806 3.907449,0.77955 4.286807,0.348045"
       id="path2466"
       sodipodi:nodetypes="csssc" /><path
       style="fill:none;stroke:#000000;stroke-width:0.652398;stroke-dasharray:none"
       d="m 93.903612,86.153591 c -0.01199,-0.637292 0.07057,-4.059874 1.596465,-4.855915 2.079708,-1.084967 3.328792,-4.217406 1.199364,-5.581455 -2.129438,-1.364047 -5.898823,2.773403 -5.955535,6.545989 -0.05675,3.772585 0.537719,4.565931 1.662993,4.722869 0.787953,0.109888 1.509531,-0.08945 1.496713,-0.831488 z"
       id="path2468"
       sodipodi:nodetypes="sszzss" /><path
       style="fill:none;stroke:#000000;stroke-width:0.942353;stroke-dasharray:none"
       d="m 93.968654,109.40161 c 3.052274,1.85374 9.174076,3.65082 10.912486,-2.06959 0.71966,-2.36809 0.93814,-4.23956 2.1637,-5.26807 6.54886,-5.495978 6.70702,-10.182626 6.58512,-13.922764 -0.14281,-4.380273 -1.41883,-8.627515 1.12888,-10.81834 2.74794,-2.363001 3.80938,-3.474904 3.66884,-5.644345 -0.1947,-3.005365 1.47592,-4.42381 1.1923,-6.895253"
       id="path2470"
       sodipodi:nodetypes="csssssc" /><path
       style="fill:none;stroke:#000000;stroke-width:1.23231;stroke-dasharray:none"
       d="m 113.77723,129.71705 c 10.55998,5.56059 20.98937,10.72305 36.20233,27.31293"
       id="path2472"
       sodipodi:nodetypes="cc" /><path
       style="fill:none;stroke:#000000;stroke-width:1.08733;stroke-dasharray:none"
       d="m 175.52301,162.41804 c -6.85029,-3.46945 -18.20166,-8.29819 -29.03553,-9.07602"
       id="path2474"
       sodipodi:nodetypes="cc" /><path
       style="fill:none;stroke:#000000;stroke-width:1.23231;stroke-dasharray:none"
       d="m 165.07945,157.77833 c 0.36694,-2.31168 0.8442,-4.81862 2.99338,-7.26724 3.79759,-4.32669 4.84992,-11.1252 7.11757,-16.82941"
       id="path2476"
       sodipodi:nodetypes="csc" /><path
       style="fill:none;stroke:#000000;stroke-width:1.23231;stroke-dasharray:none"
       d="m 173.26133,139.26931 c -4.97191,-8.44933 -3.22052,-13.82934 8.11538,-14.8338"
       id="path2478"
       sodipodi:nodetypes="cc" /><path
       style="fill:none;stroke:#000000;stroke-width:1.23231;stroke-dasharray:none"
       d="m 173.66045,126.36455 c -0.0371,-1.50728 -0.11964,-3.56304 -0.19956,-5.58762 -0.2771,-7.02062 3.56807,-7.36905 7.38367,-7.11757 11.01004,0.72565 11.80579,4.4988 11.97348,6.25283 0.35202,3.68203 -0.31297,4.48431 -1.706,5.28995"
       id="path2480"
       sodipodi:nodetypes="csssc" /><path
       style="fill:none;stroke:#000000;stroke-width:1.23231;stroke-dasharray:none"
       d="m 186.34807,123.75004 c 6.49205,0.57853 8.39846,4.61189 7.33768,11.05117 -0.34157,2.07334 -0.78285,4.20732 -0.0828,6.54611 1.17804,3.93492 -0.34914,5.66438 -0.3877,8.31736 -0.12917,8.89529 -1.2395,15.05092 -3.01032,18.62638 -2.74922,5.55092 -5.34174,10.38873 -8.27838,15.0516"
       id="path2492"
       sodipodi:nodetypes="cssssc" /><path
       style="fill:none;stroke:#000000;stroke-width:1.23231;stroke-dasharray:none"
       d="m 109.64564,169.98969 c 4.13674,0.6478 10.09786,3.04788 13.7679,4.6983 4.15277,1.86749 6.06988,3.01414 8.37244,3.99808"
       id="path2494"
       sodipodi:nodetypes="csc" /><path
       style="fill:none;stroke:#000000;stroke-width:0.942353;stroke-dasharray:none"
       d="m 175.15344,114.90486 c -1.09122,0.007 -1.41226,-11.50027 -0.75257,-11.94722 5.71378,-9.203085 5.56993,-10.041563 5.17397,-14.769409"
       id="path2496"
       sodipodi:nodetypes="ccc" /><path
       style="fill:none;stroke:#000000;stroke-width:0.942353;stroke-dasharray:none"
       d="m 174.35384,103.09876 c -0.3279,-2.52483 0.17193,-5.380738 0.42332,-8.137304 1.20643,-2.369158 3.07979,-3.404457 4.89177,-4.562506"
       id="path2498"
       sodipodi:nodetypes="ccc" /><path
       style="fill:none;stroke:#000000;stroke-width:0.942353;stroke-dasharray:none"
       d="m 179.71595,89.411175 c -0.75647,-0.149007 -1.56234,-0.199197 -1.8344,-1.31702 1.00439,-1.921515 2.5183,-3.733616 3.71588,-3.480688 4.3757,0.924172 3.15472,5.360456 3.80991,8.560629 0.55522,-1.097054 0.98901,-2.744606 1.29351,-4.468465"
       id="path2500"
       sodipodi:nodetypes="ccscc" /><path
       style="fill:none;stroke:#000000;stroke-width:0.942353;stroke-dasharray:none"
       d="m 184.91348,87.976579 c 0.52075,-0.196952 2.45499,1.005564 2.30024,1.140972"
       id="path2502"
       sodipodi:nodetypes="cc" /><path
       style="fill:none;stroke:#000000;stroke-width:1.08733;stroke-dasharray:none"
       d="m 178.71593,90.976251 -0.56541,-2.32818"
       id="path2504" /><path
       style="fill:none;stroke:#000000;stroke-width:1.08733;stroke-dasharray:none"
       d="m 177.95095,87.883098 c -0.32119,-1.430043 -1.3137,-3.26263 0.56542,-4.090941 1.82772,-0.80564 2.87912,-0.67287 3.15968,0.831487"
       id="path2506"
       sodipodi:nodetypes="csc" /><path
       style="fill:none;stroke:#000000;stroke-width:0.942353;stroke-dasharray:none"
       d="m 184.10399,86.087074 c 0.41457,-0.337303 0.65358,-0.705793 1.92908,-0.532152 0.9389,0.127724 1.68784,0.381318 2.9601,0.43238 4.00491,0.160693 1.93718,7.160644 1.66299,9.745105"
       id="path2508"
       sodipodi:nodetypes="cssc" /><path
       style="fill:none;stroke:#000000;stroke-width:0.942353;stroke-dasharray:none"
       d="m 191.35463,88.648071 c 4.79598,1.171234 1.86447,7.936532 2.46118,9.645301"
       id="path2510"
       sodipodi:nodetypes="cc" /><path
       style="fill:none;stroke:#000000;stroke-width:0.942353;stroke-dasharray:none"
       d="m 193.82685,96.278482 c 2.1667,0.330343 1.48192,3.182324 1.12888,5.268078 -0.26521,1.56681 -0.62267,3.09432 -0.89371,4.32734 -1.49988,6.8237 -2.63404,6.50704 -3.52771,10.34798"
       id="path2512"
       sodipodi:nodetypes="cssc" /><text
       xml:space="preserve"
       style="font-style:normal;font-variant:normal;font-weight:normal;font-stretch:normal;font-size:27.6182px;font-family:'Segoe Script';-inkscape-font-specification:'Segoe Script';fill:none;stroke:#000000;stroke-width:0.724886;stroke-dasharray:none"
       x="127.26988"
       y="75.385597"
       id="text2568"><tspan
         sodipodi:role="line"
         id="tspan2566"
         style="font-style:normal;font-variant:normal;font-weight:normal;font-stretch:normal;font-family:'Segoe Script';-inkscape-font-specification:'Segoe Script';stroke-width:0.724887"
         x="127.26988"
         y="75.385597" /></text><g
       aria-label="a2+b2=c2"
       transform="rotate(7.4542385)"
       id="text2572"
       style="font-size:12.2747px;font-family:'Segoe Script';-inkscape-font-specification:'Segoe Script';stroke:#000000;stroke-width:0.289956"
       inkscape:label="text2572"><path
         d="m 137.39393,62.328674 q 0,-0.449513 -0.13786,-0.647299 -0.13185,-0.197786 -0.30566,-0.197786 -0.14984,0 -0.30567,0.05993 -0.14984,0.05394 -0.28769,0.143844 -0.13785,0.0899 -0.25173,0.197786 -0.11387,0.107883 -0.1858,0.209773 -0.14384,0.191792 -0.30567,0.437526 -0.15583,0.245734 -0.31765,0.515441 -0.15583,0.269708 -0.29968,0.551403 -0.14384,0.281695 -0.25772,0.551402 -0.10788,0.263715 -0.17381,0.509448 -0.0659,0.239741 -0.0659,0.431533 0,0.281695 0.10789,0.455506 0.10788,0.167818 0.40755,0.167818 0.10189,0 0.29968,-0.125863 0.19778,-0.131857 0.41954,-0.329643 0.22776,-0.197786 0.44352,-0.425539 0.21577,-0.233747 0.35362,-0.443519 0.14984,-0.22176 0.29968,-0.485474 0.15583,-0.263715 0.28169,-0.539416 0.12586,-0.275701 0.20378,-0.539415 0.0779,-0.269708 0.0779,-0.497461 z m 3.35037,2.673103 q 0,0.0959 -0.042,0.22176 -0.036,0.11987 -0.11987,0.245734 -0.10788,0.185798 -0.28769,0.383584 -0.17381,0.191792 -0.39557,0.353617 -0.21577,0.155831 -0.47349,0.257721 -0.25772,0.101889 -0.53342,0.101889 -0.35961,0 -0.62332,-0.161824 -0.25772,-0.161825 -0.44952,-0.437526 -0.18579,-0.281695 -0.31166,-0.653292 -0.11987,-0.371598 -0.19778,-0.78515 -0.26372,0.383585 -0.62932,0.761176 -0.35961,0.37759 -0.74919,0.683259 -0.38358,0.299676 -0.76118,0.491468 -0.37159,0.185798 -0.65928,0.185798 -0.19179,0 -0.3716,-0.0959 -0.17381,-0.0959 -0.31166,-0.25772 -0.13186,-0.161825 -0.20977,-0.371598 -0.0779,-0.209773 -0.0779,-0.443519 0,-0.233747 0.036,-0.491468 0.042,-0.257721 0.13186,-0.551402 0.0959,-0.299676 0.23974,-0.647299 0.14984,-0.347623 0.3656,-0.761175 0.23974,-0.467494 0.56939,-0.881046 0.32964,-0.419545 0.67127,-0.731207 0.34163,-0.317656 0.6473,-0.497461 0.31166,-0.185799 0.50345,-0.185799 0.0539,0 0.11987,0.02397 0.0719,0.02397 0.14385,0.05394 0.0779,0.02397 0.14384,0.04795 0.0719,0.01798 0.11987,0.01798 0.0479,0 0.0959,-0.01798 0.0479,-0.02397 0.0959,-0.04795 0.0479,-0.02997 0.0959,-0.05394 0.0479,-0.02397 0.0959,-0.02397 0.0719,0 0.15583,0.04795 0.0839,0.04795 0.16182,0.125864 0.0779,0.07192 0.13785,0.167818 0.0599,0.0959 0.0839,0.185799 0.024,0.107883 0.0599,0.161824 0.042,0.04795 0.0779,0.0899 0.042,0.04195 0.0659,0.101889 0.03,0.05394 0.03,0.173812 0,0.05994 -0.042,0.251727 -0.042,0.191793 -0.0959,0.449513 -0.048,0.251728 -0.0899,0.527429 -0.042,0.275701 -0.042,0.503454 0,0.641305 0.0719,1.048864 0.0719,0.407558 0.19779,0.647298 0.12586,0.233747 0.29368,0.32365 0.17381,0.0899 0.3656,0.0899 0.45551,0 0.7432,-0.155831 0.29368,-0.155831 0.52143,-0.4615 0.0659,-0.08391 0.11388,-0.149837 0.048,-0.06593 0.0959,-0.06593 0.0839,0 0.14983,0.06593 0.0719,0.06593 0.0719,0.13785 z"
         id="path3797" /><path
         d="m 146.18163,61.174621 q 0,0.08181 -0.0468,0.190894 -0.0507,0.128561 -0.29219,0.241539 -0.23374,0.105186 -0.39737,0.105186 h -0.14414 q -0.3701,0 -0.54931,-0.05065 -0.54931,-0.144144 -1.34794,-0.144144 -0.15973,0 -0.32725,0.01169 -0.16752,0.01169 -0.34673,0.03896 -0.3662,0.04675 -0.61943,0.144144 -0.47529,0.183103 -0.59606,0.327247 -0.14804,0.179207 -0.23764,0.245435 -0.0896,0.07012 -0.26491,0.07012 -0.30388,0 -0.30388,-0.26881 0,-0.296081 0.13636,-0.479183 0.21427,-0.296081 0.51424,-0.494766 0.15194,-0.101291 0.35062,-0.214269 0.20259,-0.116874 0.45971,-0.249331 0.187,-0.0935 0.37789,-0.198685 0.19089,-0.109083 0.34673,-0.257123 0.14025,-0.124665 0.28439,-0.257123 0.14804,-0.136352 0.29998,-0.272705 0.30776,-0.280498 0.49476,-0.529829 0.19869,-0.257122 0.32725,-0.498661 0.13246,-0.245436 0.13246,-0.490871 0,-0.179206 -0.15194,-0.373996 -0.14804,-0.19479 -0.374,-0.331143 -0.21427,-0.132457 -0.39737,-0.132457 -0.22206,0 -0.62333,0.24154 -0.19868,0.120769 -0.35841,0.233747 -0.15583,0.109083 -0.2727,0.218165 -0.0429,0.03896 -0.0896,0.08571 -0.0429,0.04285 -0.0857,0.0935 -0.0429,0.05065 -0.0857,0.08571 -0.0429,0.03506 -0.0974,0.05454 -0.0506,0.01948 -0.12077,0.03117 -0.0662,0.0078 -0.15972,0.0078 -0.074,0 -0.16363,-0.171415 -0.0818,-0.167519 -0.0818,-0.264914 0,-0.09739 0.0545,-0.144144 0.0662,-0.05454 0.1831,-0.132458 0.12077,-0.08181 0.24933,-0.171415 0.1909,-0.136352 0.35452,-0.245435 0.16752,-0.112978 0.31167,-0.202581 0.14804,-0.0896 0.29608,-0.155832 0.15193,-0.07012 0.31556,-0.12077 0.24543,-0.07402 0.68566,-0.07402 0.38568,0 0.73241,0.311664 0.34672,0.311664 0.57657,0.728514 0.14025,0.280497 0.14025,0.315559 0,0.307768 -0.25712,0.73241 -0.12467,0.214269 -0.2805,0.420746 -0.15193,0.206477 -0.33114,0.409058 -0.35062,0.397372 -0.63891,0.642807 -0.54541,0.475287 -1.02849,0.724618 0.10129,-0.0078 0.25323,-0.01169 0.15193,-0.0039 0.3623,-0.0039 0.41296,0 1.22718,0.04675 0.10908,0.0078 0.22596,0.01558 0.11687,0.0039 0.24154,0.01169 0.24933,0.01169 0.39347,0.01169 0.0974,0 0.26102,-0.06233 0.16362,-0.06233 0.24154,-0.06233 0.0662,0 0.15193,0.09739 0.0896,0.10129 0.0896,0.171415 z"
         style="font-size:7.97859px;baseline-shift:super"
         id="path3799" /><path
         d="m 152.92552,63.82705 q -0.12586,0.161825 -0.5514,0.161825 -0.0539,0 -0.21577,-0.01199 -0.15583,-0.01798 -0.33563,-0.02997 -0.17981,-0.01798 -0.34163,-0.02997 -0.15583,-0.01798 -0.20977,-0.01798 -0.20378,0 -0.32365,0 -0.11987,0 -0.22176,0.006 -0.0959,0 -0.20978,0.006 -0.11387,0 -0.30567,0 -0.13185,0.263714 -0.13185,0.815117 0,0.113877 0,0.209773 0.006,0.0959 0.006,0.23974 0,0.203779 -0.024,0.407558 -0.024,0.197786 -0.024,0.407559 0,0.209772 -0.0659,0.293682 -0.0659,0.08391 -0.26371,0.08391 -0.25772,0 -0.34163,-0.0959 -0.0779,-0.10189 -0.0779,-0.359611 0,-0.101889 0.024,-0.329643 0.03,-0.233746 0.0779,-0.611337 0.024,-0.191792 0.0479,-0.455507 0.024,-0.263714 0.048,-0.605344 -0.0959,-0.006 -0.25772,-0.01199 -0.15583,-0.01199 -0.34762,-0.01199 -0.1858,-0.006 -0.39558,-0.006 -0.20377,-0.006 -0.39557,-0.006 -0.11987,0 -0.35361,0.05994 -0.23375,0.05394 -0.30567,0.05394 -0.16183,0 -0.29368,-0.11987 -0.12587,-0.125864 -0.12587,-0.287689 0,-0.04795 0.018,-0.113876 0.024,-0.07192 0.0599,-0.131857 0.0419,-0.05994 0.0899,-0.10189 0.0539,-0.04196 0.11388,-0.04196 0.0539,0 0.16182,0.01199 0.11388,0.01199 0.23375,0.02997 0.11987,0.01798 0.22775,0.02997 0.10788,0.01199 0.16183,0.01199 0.024,0 0.10189,0 0.0779,-0.006 0.18579,-0.006 0.10789,-0.006 0.22176,-0.01199 0.11987,-0.006 0.22176,-0.01199 0.20378,-0.01199 0.37759,-0.01798 0.17981,-0.01199 0.33564,-0.01199 0.0719,-0.221759 0.0719,-0.467493 0,-0.08391 -0.012,-0.263714 -0.006,-0.185799 -0.018,-0.389578 -0.012,-0.203779 -0.024,-0.383585 -0.006,-0.179805 -0.006,-0.263714 0,-0.11987 -0.006,-0.191792 0,-0.07792 -0.006,-0.167818 0,-0.203779 0.11987,-0.407559 0.12587,-0.203779 0.31166,-0.203779 0.0539,0 0.10789,0.06593 0.0599,0.05994 0.10788,0.143844 0.0539,0.08391 0.0839,0.167818 0.03,0.08391 0.03,0.125864 0,0.311662 -0.0539,0.833097 -0.0539,0.521435 -0.0539,0.713227 0,0.305669 0.036,0.611338 0.20978,0.04795 0.50346,0.04795 0.29967,-0.006 0.6473,-0.01798 0.22775,-0.006 0.39557,-0.006 0.17381,-0.006 0.28769,-0.006 0.65928,0 0.79713,0.191793 0.0839,0.131857 0.0839,0.47948 z"
         id="path3801" /><path
         d="m 159.75812,63.323596 q 0,0.59935 -0.20378,1.186714 -0.19779,0.58137 -0.53342,1.114792 -0.33564,0.527428 -0.77916,0.982935 -0.43753,0.455506 -0.923,0.797136 -0.48547,0.347623 -0.98293,0.557396 -0.49747,0.215766 -0.94098,0.257721 -0.11987,-0.006 -0.23974,-0.05394 -0.11388,-0.04795 -0.21577,-0.113876 -0.0959,-0.06593 -0.15583,-0.149838 -0.0599,-0.07792 -0.0599,-0.143844 0,-0.107883 0.0719,-0.209773 0.0719,-0.0959 0.22776,-0.179805 0.33563,0 0.69524,-0.0959 0.36561,-0.0959 0.73121,-0.275701 0.36561,-0.179805 0.71323,-0.431533 0.35362,-0.25772 0.65929,-0.575376 0.25772,-0.263715 0.4555,-0.569383 0.20378,-0.311663 0.34163,-0.629318 0.13785,-0.317656 0.20977,-0.629319 0.0719,-0.317655 0.0719,-0.593357 0,-0.125863 -0.03,-0.233746 -0.024,-0.107884 -0.0719,-0.179806 -0.042,-0.07791 -0.0959,-0.11987 -0.0539,-0.04195 -0.10788,-0.04195 -0.31166,0 -0.67128,0.179805 -0.35961,0.173812 -0.72521,0.467493 -0.3656,0.293682 -0.71323,0.677267 -0.34762,0.383584 -0.6413,0.803129 -0.28769,0.419546 -0.50346,0.845085 -0.21576,0.419545 -0.30566,0.785149 -0.03,0.137851 -0.10189,0.287688 -0.0659,0.149838 -0.15584,0.269708 -0.0899,0.11987 -0.19179,0.185799 -0.0959,0.07192 -0.1858,0.04195 -0.25772,-0.0959 -0.25772,-0.527428 0,-0.10189 0.0539,-0.359611 0.0599,-0.263714 0.16183,-0.635311 0.11987,-0.467494 0.20378,-0.851078 0.0899,-0.389578 0.16182,-0.761175 0.0779,-0.377591 0.14984,-0.767169 0.0719,-0.395571 0.16183,-0.881045 0.0899,-0.4615 0.17381,-0.869059 0.0899,-0.413552 0.19179,-0.809123 0.10189,-0.401565 0.22176,-0.797136 0.11987,-0.401565 0.2757,-0.833098 0.12586,-0.35961 0.25772,-0.605344 0.13785,-0.251727 0.26971,-0.407558 0.13186,-0.161825 0.25772,-0.233747 0.12586,-0.07192 0.23375,-0.07192 0.0719,0 0.14384,0.02397 0.0779,0.01798 0.14384,0.07792 0.0659,0.05394 0.10789,0.155831 0.0419,0.0959 0.0419,0.245733 0,0.20378 -0.0419,0.407559 -0.042,0.203779 -0.10789,0.407558 -0.0599,0.197786 -0.13785,0.389578 -0.0779,0.191792 -0.14983,0.371598 -0.0839,0.209772 -0.20378,0.467493 -0.11987,0.251727 -0.23974,0.515441 -0.11987,0.257721 -0.22776,0.497461 -0.10189,0.239741 -0.16182,0.413552 -0.024,0.06593 -0.0719,0.245734 -0.048,0.173812 -0.10789,0.413552 -0.0539,0.23974 -0.11987,0.521435 -0.0659,0.275701 -0.12586,0.545409 -0.0539,0.263714 -0.10189,0.497461 -0.0419,0.227753 -0.0599,0.371597 0.1798,-0.287688 0.42553,-0.593357 0.25173,-0.311662 0.53942,-0.605344 0.28769,-0.293682 0.59935,-0.551402 0.31166,-0.263715 0.61733,-0.4615 0.31166,-0.197786 0.59935,-0.311663 0.28769,-0.113876 0.52743,-0.113876 0.0899,0 0.1858,0 0.0959,0 0.1798,0.01798 0.0839,0.01798 0.14984,0.05994 0.0719,0.03596 0.11987,0.107884 0.0719,0.107883 0.13186,0.251727 0.0599,0.13785 0.10189,0.287688 0.042,0.143844 0.0599,0.287688 0.024,0.137851 0.024,0.251728 z"
         id="path3803" /><path
         d="m 165.59702,61.174621 q 0,0.08181 -0.0467,0.190894 -0.0507,0.128561 -0.29219,0.241539 -0.23374,0.105186 -0.39737,0.105186 h -0.14414 q -0.3701,0 -0.54931,-0.05065 -0.54931,-0.144144 -1.34794,-0.144144 -0.15973,0 -0.32725,0.01169 -0.16752,0.01169 -0.34673,0.03896 -0.3662,0.04675 -0.61943,0.144144 -0.47529,0.183103 -0.59606,0.327247 -0.14804,0.179207 -0.23764,0.245435 -0.0896,0.07012 -0.26491,0.07012 -0.30388,0 -0.30388,-0.26881 0,-0.296081 0.13636,-0.479183 0.21427,-0.296081 0.51424,-0.494766 0.15194,-0.101291 0.35062,-0.214269 0.20259,-0.116874 0.45971,-0.249331 0.187,-0.0935 0.37789,-0.198685 0.19089,-0.109083 0.34673,-0.257123 0.14024,-0.124665 0.28439,-0.257123 0.14804,-0.136352 0.29998,-0.272705 0.30776,-0.280498 0.49476,-0.529829 0.19869,-0.257122 0.32725,-0.498661 0.13246,-0.245436 0.13246,-0.490871 0,-0.179206 -0.15194,-0.373996 -0.14804,-0.19479 -0.374,-0.331143 -0.21427,-0.132457 -0.39737,-0.132457 -0.22206,0 -0.62333,0.24154 -0.19868,0.120769 -0.35841,0.233747 -0.15583,0.109083 -0.2727,0.218165 -0.0429,0.03896 -0.0896,0.08571 -0.0429,0.04285 -0.0857,0.0935 -0.0429,0.05065 -0.0857,0.08571 -0.0429,0.03506 -0.0974,0.05454 -0.0506,0.01948 -0.12077,0.03117 -0.0662,0.0078 -0.15973,0.0078 -0.074,0 -0.16362,-0.171415 -0.0818,-0.167519 -0.0818,-0.264914 0,-0.09739 0.0545,-0.144144 0.0662,-0.05454 0.1831,-0.132458 0.12077,-0.08181 0.24933,-0.171415 0.1909,-0.136352 0.35452,-0.245435 0.16752,-0.112978 0.31167,-0.202581 0.14804,-0.0896 0.29608,-0.155832 0.15193,-0.07012 0.31556,-0.12077 0.24543,-0.07402 0.68566,-0.07402 0.38568,0 0.7324,0.311664 0.34673,0.311664 0.57658,0.728514 0.14025,0.280497 0.14025,0.315559 0,0.307768 -0.25712,0.73241 -0.12467,0.214269 -0.2805,0.420746 -0.15193,0.206477 -0.33114,0.409058 -0.35062,0.397372 -0.63891,0.642807 -0.54541,0.475287 -1.02849,0.724618 0.10129,-0.0078 0.25323,-0.01169 0.15193,-0.0039 0.3623,-0.0039 0.41296,0 1.22718,0.04675 0.10908,0.0078 0.22596,0.01558 0.11687,0.0039 0.24154,0.01169 0.24933,0.01169 0.39347,0.01169 0.0974,0 0.26102,-0.06233 0.16362,-0.06233 0.24154,-0.06233 0.0662,0 0.15193,0.09739 0.0896,0.10129 0.0896,0.171415 z"
         style="font-size:7.97859px;baseline-shift:super"
         id="path3805" /><path
         d="m 172.48475,61.27981 q 0,0.0959 -0.0419,0.22176 -0.042,0.125863 -0.10189,0.191792 -0.0719,0.0899 -0.31766,0.10189 -0.13785,0 -0.3656,-0.10189 -0.26371,-0.0899 -0.37759,-0.0899 -0.0419,0 -0.11987,0.01199 -0.0719,0.01199 -0.15583,0.02397 -0.0779,0.006 -0.14984,0.01798 -0.0719,0.01199 -0.11388,0.01199 -0.19179,0 -0.53941,-0.03596 -0.35961,-0.03596 -0.59336,-0.03596 -0.58736,0.01798 -1.16873,0.0899 -0.57538,0.06593 -1.15675,0.08391 -0.24573,0.006 -0.38958,-0.06593 -0.13785,-0.07192 -0.14384,-0.34163 -0.012,-0.173812 0.0719,-0.311662 0.0839,-0.137851 0.23375,-0.179805 0.58736,-0.173812 1.19271,-0.191793 0.0959,-0.006 0.20378,0.006 0.11387,0.006 0.25172,0.02397 0.25772,0.01798 0.40756,0.01798 0.14385,-0.006 0.25173,-0.006 0.11387,-0.006 0.20977,-0.006 0.10189,0 0.19779,0 0.0959,-0.006 0.20378,-0.006 0.32365,-0.01199 0.59335,-0.03596 0.26971,-0.02997 0.49147,-0.07792 0.024,-0.006 0.15583,-0.006 0.13186,-0.006 0.2757,0 0.14385,0.006 0.29368,0.01798 0.0839,0.01199 0.22176,0.07792 0.13786,0.06593 0.31167,0.197786 0.0659,0.04795 0.11387,0.173811 0.0479,0.125864 0.0539,0.22176 z m 0.0899,3.176558 q 0,0.06593 -0.024,0.149838 -0.018,0.07792 -0.0659,0.173812 -0.10188,0.167818 -0.19778,0.173811 -0.16183,0 -0.56339,-0.07192 -0.20378,-0.02997 -0.3716,-0.04195 -0.16182,-0.01798 -0.28169,-0.01798 -0.40756,0.01798 -1.15076,0.01798 -0.3656,0 -0.7312,0 -0.36561,0 -0.73121,0.006 -0.3656,0.006 -0.65329,0.01199 -0.28769,0 -0.49746,0.01199 -0.0899,0 -0.26971,-0.251727 -0.16183,-0.23974 -0.17381,-0.377591 0,-0.185799 0.37159,-0.263714 0.1918,-0.04795 0.34763,-0.07192 0.15583,-0.02397 0.28769,-0.02997 0.13785,-0.006 0.35961,0.006 0.22176,0.006 0.52742,0.01798 0.30567,0.006 0.49147,0.01199 0.1858,0 0.25173,0 0.0779,0 0.1858,-0.006 0.10788,-0.01199 0.25172,-0.03596 0.13786,-0.02397 0.26372,-0.03596 0.13186,-0.01199 0.23375,-0.01199 0.62931,-0.02397 1.3785,0.101889 0.75518,0.137851 0.76118,0.533422 z"
         id="path3807" /><path
         d="m 180.39618,64.378453 q 0,0.215766 -0.15583,0.389578 -0.16182,0.179805 -0.28169,0.305668 -0.11987,0.11987 -0.22776,0.22176 -0.10788,0.10189 -0.22775,0.197786 -0.11987,0.0899 -0.2817,0.209772 -0.4555,0.329643 -0.86905,0.557397 -0.41356,0.221759 -0.80313,0.365603 -0.38958,0.137851 -0.77317,0.197786 -0.37759,0.05993 -0.76117,0.05993 -0.40157,0 -0.71922,-0.149838 -0.31766,-0.155831 -0.53942,-0.419545 -0.21576,-0.263714 -0.32964,-0.611338 -0.11388,-0.353616 -0.11388,-0.743194 v -0.02997 q 0,-0.395571 0.10189,-0.839091 0.10189,-0.449513 0.2817,-0.899026 0.1858,-0.449512 0.44352,-0.881045 0.25772,-0.437526 0.56938,-0.815117 0.12586,-0.149837 0.29968,-0.317656 0.1798,-0.173811 0.37759,-0.317655 0.20378,-0.143844 0.41954,-0.233747 0.22176,-0.0959 0.43153,-0.0959 0.14385,0 0.27571,0.0899 0.13185,0.08391 0.24573,0.22176 0.11388,0.137851 0.20977,0.311662 0.0959,0.167819 0.16183,0.347624 0.0659,0.173811 0.10189,0.335636 0.036,0.161825 0.036,0.275701 0,0.173812 -0.10789,0.449513 -0.10788,0.275702 -0.25772,0.275702 -0.21576,0 -0.35961,-0.293682 -0.0539,-0.113877 -0.0959,-0.263714 -0.036,-0.149838 -0.0899,-0.293682 -0.0479,-0.143844 -0.13185,-0.263714 -0.0839,-0.125864 -0.23375,-0.185799 -0.14984,0.03596 -0.30567,0.155831 -0.14984,0.11987 -0.29967,0.293682 -0.14385,0.173811 -0.28769,0.395571 -0.13785,0.215766 -0.26372,0.449513 -0.11987,0.215766 -0.23374,0.497461 -0.11388,0.275701 -0.20378,0.575377 -0.0899,0.293681 -0.14385,0.587363 -0.0539,0.293682 -0.0539,0.539416 0,0.173811 0.0839,0.353617 0.0839,0.173811 0.21577,0.317655 0.13785,0.143845 0.30567,0.233747 0.17381,0.0899 0.35361,0.0899 0.88704,0 1.76209,-0.365604 0.87506,-0.365604 1.6662,-1.060851 0.43752,-0.383584 0.72521,-0.383584 0.0839,0 0.0839,0.161825 z"
         id="path3809" /><path
         d="m 185.83951,61.174621 q 0,0.08181 -0.0468,0.190894 -0.0506,0.128561 -0.29218,0.241539 -0.23375,0.105186 -0.39738,0.105186 h -0.14414 q -0.3701,0 -0.54931,-0.05065 -0.5493,-0.144144 -1.34794,-0.144144 -0.15973,0 -0.32725,0.01169 -0.16752,0.01169 -0.34672,0.03896 -0.36621,0.04675 -0.61944,0.144144 -0.47528,0.183103 -0.59605,0.327247 -0.14804,0.179207 -0.23765,0.245435 -0.0896,0.07012 -0.26491,0.07012 -0.30387,0 -0.30387,-0.26881 0,-0.296081 0.13635,-0.479183 0.21427,-0.296081 0.51425,-0.494766 0.15193,-0.101291 0.35062,-0.214269 0.20258,-0.116874 0.4597,-0.249331 0.187,-0.0935 0.37789,-0.198685 0.1909,-0.109083 0.34673,-0.257123 0.14025,-0.124665 0.28439,-0.257123 0.14804,-0.136352 0.29998,-0.272705 0.30777,-0.280498 0.49476,-0.529829 0.19869,-0.257122 0.32725,-0.498661 0.13246,-0.245436 0.13246,-0.490871 0,-0.179206 -0.15194,-0.373996 -0.14804,-0.19479 -0.37399,-0.331143 -0.21427,-0.132457 -0.39738,-0.132457 -0.22206,0 -0.62332,0.24154 -0.19869,0.120769 -0.35842,0.233747 -0.15583,0.109083 -0.2727,0.218165 -0.0429,0.03896 -0.0896,0.08571 -0.0428,0.04285 -0.0857,0.0935 -0.0429,0.05065 -0.0857,0.08571 -0.0429,0.03506 -0.0974,0.05454 -0.0506,0.01948 -0.12076,0.03117 -0.0662,0.0078 -0.15973,0.0078 -0.074,0 -0.16363,-0.171415 -0.0818,-0.167519 -0.0818,-0.264914 0,-0.09739 0.0545,-0.144144 0.0662,-0.05454 0.18311,-0.132458 0.12077,-0.08181 0.24933,-0.171415 0.19089,-0.136352 0.35451,-0.245435 0.16752,-0.112978 0.31167,-0.202581 0.14804,-0.0896 0.29608,-0.155832 0.15193,-0.07012 0.31556,-0.12077 0.24543,-0.07402 0.68566,-0.07402 0.38568,0 0.73241,0.311664 0.34672,0.311664 0.57658,0.728514 0.14024,0.280497 0.14024,0.315559 0,0.307768 -0.25712,0.73241 -0.12466,0.214269 -0.2805,0.420746 -0.15193,0.206477 -0.33114,0.409058 -0.35062,0.397372 -0.63891,0.642807 -0.54541,0.475287 -1.02849,0.724618 0.10129,-0.0078 0.25323,-0.01169 0.15193,-0.0039 0.36231,-0.0039 0.41295,0 1.22717,0.04675 0.10908,0.0078 0.22596,0.01558 0.11687,0.0039 0.24154,0.01169 0.24933,0.01169 0.39347,0.01169 0.0974,0 0.26102,-0.06233 0.16363,-0.06233 0.24154,-0.06233 0.0662,0 0.15194,0.09739 0.0896,0.10129 0.0896,0.171415 z"
         style="font-size:7.97859px;baseline-shift:super"
         id="path3811" /></g><circle
       style="display:none;fill:none;fill-opacity:1;stroke:#000000;stroke-width:0.2;stroke-dasharray:none"
       id="path3441"
       cx="-6.5284071"
       cy="178.87247"
       transform="matrix(-0.81526662,0.57908578,0.57908578,0.81526662,0,0)"
       r="72" /><g
       aria-label="МАТЭМАТЫКАЎ"
       transform="matrix(1.4497735,0,0,1.4497735,-61.573051,-83.305834)"
       id="text4197"
       style="font-size:14.8167px;line-height:0;font-family:'Comic Sans MS';-inkscape-font-specification:'Comic Sans MS';letter-spacing:1.32292px;stroke:#000000;stroke-width:0.2"><path
         d="m 57.160088,193.25277 q -0.253907,-0.29691 -0.110566,-0.75267 0.122864,-0.39064 0.625838,-1.04923 l 0.776454,-1.00668 q 0.686964,-0.97775 3.270617,-4.0344 l -4.255936,1.73562 -1.322114,0.56897 q -0.790591,0.33338 -1.369854,0.45749 -0.615362,0.12641 -0.949203,-0.26397 -0.277417,-0.32441 -0.08539,-0.81228 0.12749,-0.31845 0.40025,-0.72305 l 0.473966,-0.68137 q 1.466037,-2.21514 3.319842,-4.53342 l -1.153486,0.64371 -3.509715,1.77336 q -0.548967,0.39329 -1.747161,1.01812 -0.569935,0.2018 -0.894372,-0.17759 -0.230397,-0.26942 -0.17431,-0.59344 0.0474,-0.27852 0.289332,-0.48541 0.918234,-0.78523 2.578783,-1.54842 l 2.733076,-1.29008 2.004713,-1.16221 q 1.422036,-0.79721 2.026324,-0.84753 0.506987,-0.0528 0.784404,0.27163 0.305629,0.3574 0.04921,0.88129 -0.305981,0.63292 -1.600955,2.16869 -1.55977,1.83837 -3.139038,4.25505 2.81278,-0.9965 5.61343,-2.3634 l 0.943827,-0.52154 q 0.568495,-0.3148 1.001767,-0.40925 0.590259,-0.13351 0.909994,0.24038 0.404371,0.47286 -0.296775,1.50082 -0.238178,0.35599 -1.114247,1.3241 -2.207862,2.44971 -3.553578,4.4382 l -0.715328,1.07817 q -0.580105,0.85781 -0.756054,1.00827 -0.236431,0.20219 -0.551051,0.1571 -0.309917,-0.0396 -0.502698,-0.26503 z"
         id="path3814" /><path
         d="m 66.422932,200.58584 q -0.518206,-0.41771 0.170276,-2.05576 0.262175,-0.62498 1.064063,-2.06941 -0.638097,-0.38425 -1.730938,-0.93062 l -1.748007,-0.89791 q -0.87641,0.51086 -2.702113,1.38093 -0.434501,0.17014 -0.744298,-0.0796 -0.225307,-0.18161 -0.273885,-0.49025 -0.04295,-0.30409 0.152287,-0.5463 0.217933,-0.27037 2.507734,-1.37034 0.02229,-0.22364 0.176661,-0.41515 0.367763,-0.45624 1.024191,-0.14085 1.613744,-0.6878 3.856026,-1.46368 3.055708,-1.05873 3.382403,-0.7954 0.444981,0.35868 0.108899,1.10994 l -1.170674,2.17862 -2.316222,4.59121 -0.396301,1.14876 q -0.204414,0.58791 -0.327002,0.74 -0.195231,0.2422 -0.501512,0.2648 -0.306281,0.0226 -0.531588,-0.15901 z m 3.201199,-8.04087 -3.704012,1.29815 q 0.822302,0.37476 2.407713,1.24383 z"
         id="path3816" /><path
         d="m 82.159419,199.15603 q -0.466257,-0.26311 -1.39391,-0.88626 -0.906006,-0.60263 -1.401022,-0.87366 l -0.447355,-0.25244 q -0.471753,0.88018 -1.422731,2.91875 -0.888915,1.89914 -1.45779,2.90727 -0.124442,0.22052 -0.332775,0.69277 -0.208333,0.47224 -0.33633,0.69907 -0.241772,0.42845 -0.554608,0.65897 -0.411083,0.31629 -0.782828,0.10652 -0.252031,-0.14222 -0.354103,-0.43241 -0.102071,-0.2902 0.05437,-0.56743 0.05333,-0.0945 0.1915,-0.26576 0.138168,-0.17125 0.1915,-0.26576 0.174218,-0.30874 0.478549,-0.9511 0.310632,-0.63881 0.488406,-0.95385 0.508432,-0.90101 1.284382,-2.61469 0.844314,-1.84954 1.25918,-2.6289 l -0.576926,-0.31725 q -1.379869,-0.77865 -2.053691,-1.42471 -0.435697,-0.42031 -0.158371,-0.91177 0.145775,-0.25833 0.419815,-0.36121 0.313464,-0.11386 0.598934,0.0722 0.213416,0.13704 0.944125,0.68228 0.587412,0.43116 0.97806,0.6516 0.378046,0.21333 1.153851,0.6345 0.779361,0.41486 1.157407,0.62819 0.48516,0.27377 1.397466,0.87996 0.918608,0.60974 1.403767,0.88351 0.270933,0.15288 0.346992,0.44501 0.07961,0.28584 -0.07683,0.56307 -0.152885,0.27093 -0.442271,0.35685 -0.285832,0.0796 -0.556765,-0.0733 z"
         id="path3818" /><path
         d="m 89.167842,206.3081 q -0.620925,1.66019 -2.397394,2.67191 -1.867869,1.07024 -3.507729,0.45692 -1.978675,-0.74004 -2.981597,-2.12701 -0.228901,-0.31734 -0.102182,-0.65615 0.101375,-0.27105 0.376454,-0.40762 0.277612,-0.14334 0.55544,-0.0394 0.196512,0.0735 0.333853,0.26389 0.747743,1.03663 2.319841,1.62461 0.996113,0.37256 2.265618,-0.35761 1.18064,-0.67843 1.693736,-1.69922 -0.527723,-0.22055 -0.710683,-0.28898 -0.237169,-0.0887 -0.726769,-0.28726 -0.487066,-0.20534 -0.731012,-0.29658 -0.731838,-0.27371 -1.155222,-0.27758 -0.143955,-0.007 -0.265928,-0.0531 -0.284604,-0.10645 -0.395774,-0.38748 -0.101859,-0.28527 -4.84e-4,-0.55632 0.169804,-0.45401 0.68464,-0.44683 0.674879,0.013 1.637111,0.37284 0.243947,0.0912 0.731012,0.29658 0.4896,0.19856 0.72677,0.28726 0.216841,0.0811 0.615815,0.2535 0.25362,-1.44226 -0.196128,-2.55281 -0.508308,-1.26377 -1.81613,-1.75291 -1.179073,-0.44098 -1.991743,-0.18879 -0.252269,0.0756 -0.46911,-0.006 -0.271052,-0.10138 -0.395774,-0.38747 -0.122188,-0.29287 -0.02081,-0.56393 0.114047,-0.30493 0.463664,-0.41362 1.275724,-0.3957 2.915584,0.21762 2.16841,0.81101 2.813877,3.02981 0.575008,2.01478 -0.268944,4.27129 z"
         id="path3820" /><path
         d="m 100.8764,214.39135 q -0.38421,-0.0708 -0.55983,-0.51508 -0.15054,-0.38084 -0.17451,-1.20918 l -0.0307,-1.27096 q -0.082,-1.19214 3.7e-4,-5.19358 l -2.213326,4.02822 -0.668808,1.27452 q -0.404244,0.75681 -0.776096,1.21798 -0.398439,0.48569 -0.903605,0.39263 -0.419785,-0.0773 -0.577814,-0.57725 -0.101483,-0.32766 -0.144361,-0.81373 l -0.06085,-0.82777 q -0.255957,-2.64398 -0.275622,-5.61224 l -0.490746,1.2264 -1.609858,3.58765 q -0.17881,0.65121 -0.716179,1.89109 -0.31568,0.51565 -0.806616,0.42522 -0.348635,-0.0642 -0.509098,-0.35126 -0.138555,-0.24621 -0.08089,-0.55927 0.218878,-1.18821 1.028301,-2.82672 l 1.310842,-2.72318 0.825525,-2.16521 q 0.602713,-1.51475 1.040473,-1.93434 0.360618,-0.36025 0.780403,-0.28292 0.462475,0.0852 0.593168,0.65364 0.160837,0.68435 0.121895,2.69285 -0.05411,2.4103 0.240795,5.28214 1.55762,-2.5453 2.872582,-5.37071 l 0.404804,-0.99947 q 0.243407,-0.60253 0.520521,-0.94873 0.37447,-0.4754 0.85829,-0.38628 0.61189,0.11272 0.7145,1.35279 0.0391,0.42653 -0.0318,1.73026 -0.17263,3.29331 0.0341,5.68545 l 0.1232,1.288 q 0.0895,1.03168 0.0476,1.25936 -0.0564,0.30594 -0.32916,0.46903 -0.26569,0.16439 -0.55741,0.11065 z"
         id="path3822" /><path
         d="m 112.68927,214.26593 q -0.66559,9.3e-4 -1.15993,-1.70578 -0.189,-0.65086 -0.47342,-2.27828 -0.7378,0.10232 -1.93117,0.36443 l -1.92388,0.40059 q -0.36041,0.94825 -1.23328,2.77261 -0.23094,0.40547 -0.62885,0.40602 -0.28939,4e-4 -0.52119,-0.20908 -0.22457,-0.2095 -0.225,-0.52059 -4.9e-4,-0.34726 1.08876,-2.64219 -0.12325,-0.18793 -0.12359,-0.43391 -8.2e-4,-0.58601 0.70795,-0.7534 0.82261,-1.54937 2.07865,-3.56237 1.71081,-2.74434 2.13042,-2.74493 0.57154,-7.9e-4 0.78246,0.79473 l 0.45917,2.43023 1.08496,5.02663 0.41397,1.14251 q 0.21063,0.58571 0.2109,0.78105 4.3e-4,0.31109 -0.22355,0.52121 -0.22399,0.21012 -0.51338,0.21052 z m -2.56536,-8.26571 -2.06448,3.33808 q 0.87509,-0.2255 2.65438,-0.5463 z"
         id="path3824" /><path
         d="m 124.03916,203.27254 q -0.5281,0.088 -1.64136,0.18541 -1.08354,0.0998 -1.63899,0.19967 l -0.50668,0.0844 q 0.18546,0.98125 0.72525,3.165 0.50056,2.03626 0.69077,3.17808 0.0416,0.24977 0.17596,0.74814 0.13436,0.49836 0.17716,0.75527 0.0808,0.48527 -0.0179,0.86111 -0.12136,0.50428 -0.5424,0.57442 -0.28546,0.0476 -0.54711,-0.11422 -0.26165,-0.16178 -0.31396,-0.47578 -0.0178,-0.10705 -0.0178,-0.32708 2e-5,-0.22004 -0.0178,-0.32708 -0.0583,-0.34969 -0.22471,-1.04073 -0.15932,-0.69223 -0.21875,-1.04905 -0.17,-1.02051 -0.64203,-2.84149 -0.50413,-1.96965 -0.67057,-2.83672 l -0.64822,0.11531 q -1.56287,0.26034 -2.49296,0.18058 -0.60301,-0.0536 -0.69573,-0.61021 -0.0487,-0.2926 0.1,-0.54473 0.17248,-0.28544 0.51146,-0.3199 0.25215,-0.0273 1.16322,-0.0618 0.7279,-0.0332 1.17036,-0.10695 0.42818,-0.0713 1.29644,-0.23063 0.86707,-0.16644 1.29526,-0.23776 0.5495,-0.0915 1.64017,-0.19255 1.0978,-0.10219 1.64731,-0.19373 0.30686,-0.0511 0.54948,0.1285 0.24143,0.17248 0.29373,0.48648 0.0511,0.30687 -0.12017,0.55544 -0.17248,0.24142 -0.47934,0.29254 z"
         id="path3826" /><path
         d="m 133.60802,206.18086 q 0.63061,1.64879 -0.18774,2.89128 -0.7152,1.08685 -2.42481,1.74071 -0.32436,0.12405 -0.90231,0.31412 -0.64811,0.20915 -0.90489,0.30736 -0.11289,0.0897 -0.24128,0.13875 -0.72303,0.27654 -1.18048,-0.91952 -0.0672,-0.17569 -0.35509,-1.21196 -0.3885,-1.40057 -0.83819,-2.57635 -0.30755,-0.80413 -0.95363,-2.23012 -0.64192,-1.43533 -0.94947,-2.23945 -0.33339,-0.8717 0.34235,-1.13014 0.72979,-0.27912 1.00891,0.45067 0.45486,1.18929 1.30531,3.04835 0.58689,-0.24771 0.83016,-0.34075 2.0745,-0.79342 3.25154,-0.53098 1.45014,0.3284 2.19962,2.28803 z m -1.34471,0.5143 q -0.47295,-1.23659 -1.33277,-1.41896 -0.67498,-0.14463 -1.97915,0.35417 -0.3649,0.13956 -1.1078,0.48566 0.12106,0.25578 0.23995,0.56662 0.24293,0.63519 1.0545,3.28369 0.89297,-0.31829 1.34571,-0.49145 2.47995,-0.94849 1.77956,-2.77973 z m 5.2131,-8.12075 q -0.43247,0.1654 -1.12153,0.32825 l -1.14221,0.27419 q 0.59666,2.02583 1.28153,3.81653 0.18092,0.47301 0.47414,1.15868 0.29323,0.68567 0.47414,1.15868 0.24294,0.63519 0.39464,1.1736 l 2.11823,-0.84113 q 0.28381,-0.10854 0.55054,0.0218 0.27092,0.12102 0.38205,0.41158 0.11371,0.29733 -0.005,0.575 -0.11425,0.26832 -0.39806,0.37687 -0.37841,0.14473 -1.12748,0.45446 -0.75166,0.30297 -1.13007,0.4477 -0.44599,0.17057 -1.29144,0.63335 -0.8361,0.46695 -1.28885,0.64011 -0.28381,0.10855 -0.5573,-0.0192 -0.26416,-0.1236 -0.37529,-0.41417 -0.11113,-0.29057 5.4e-4,-0.56565 0.11843,-0.27767 0.40224,-0.38622 0.43923,-0.16799 1.39856,-0.69756 -0.14177,-0.57319 -0.41055,-1.27595 -0.17833,-0.46626 -0.48149,-1.11714 -0.29898,-0.66023 -0.47473,-1.11973 -0.597,-1.56095 -1.30201,-3.97136 l -0.86812,0.36301 -0.8707,0.35625 q -0.29057,0.11113 -0.56148,-0.01 -0.27091,-0.12102 -0.38721,-0.4251 -0.24036,-0.62843 0.37157,-0.93219 0.52667,-0.2634 2.0268,-0.83714 1.34472,-0.51431 3.48305,-0.99907 0.63501,-0.14217 0.87794,0.49302 0.12147,0.31759 -0.0359,0.59467 -0.14328,0.23295 -0.40682,0.33375 z"
         id="path3828" /><path
         d="m 150.20986,200.41962 q 0.15746,0.25138 0.0749,0.54211 -0.0802,0.28075 -0.33163,0.43821 -0.42305,0.26499 -0.89967,-0.12794 -0.82968,-0.68401 -2.69553,-1.49582 -2.29241,-0.98854 -3.05882,-0.50848 -0.24525,0.15362 -0.69053,0.424 0.37636,0.60086 0.73123,1.18104 0.48545,0.78864 0.7274,1.1749 0.91403,1.45924 1.00014,1.67848 0.24754,0.61326 -0.25522,0.92817 -0.61312,0.38405 -0.98565,-0.21068 -0.28419,-0.45371 -0.82348,-1.39644 -0.54312,-0.94886 -0.83115,-1.4087 -0.54535,-0.87063 -1.69351,-2.56737 -1.14816,-1.69673 -1.68967,-2.56123 -0.60679,-0.96874 0.0247,-1.3643 0.26365,-0.16514 0.54285,-0.101 0.27921,0.0641 0.44435,0.32778 0.31108,0.49663 2.02608,3.08468 1.58186,-0.99084 1.33754,-3.76593 -0.1675,-1.87562 0.57438,-2.34031 0.25751,-0.1613 0.56421,-0.21682 0.39334,-0.0671 0.5316,0.15361 0.29955,0.47824 -0.0254,0.68179 -0.64991,0.40708 -0.33445,2.23271 0.2877,1.67228 -0.56946,2.66163 1.08031,-0.22423 3.42946,0.74585 2.3453,0.96395 2.87528,1.81006 z"
         id="path3830" /><path
         d="m 159.12937,194.07972 q -0.50192,0.43714 -1.99426,-0.5273 -0.56948,-0.36748 -1.85134,-1.4097 -0.48996,0.56103 -1.21909,1.54143 l -1.18988,1.56396 q 0.34966,0.95227 0.8869,2.90203 0.0915,0.45757 -0.20856,0.7189 -0.21823,0.19006 -0.53061,0.18389 -0.30692,-0.0109 -0.51123,-0.24551 -0.22807,-0.26187 -0.91048,-2.7088 -0.21629,-0.0611 -0.37784,-0.24657 -0.38487,-0.44191 0.0405,-1.03303 -0.39487,-1.70919 -0.76649,-4.05263 -0.50782,-3.19381 -0.19139,-3.46939 0.431,-0.37537 1.11188,0.087 l 1.94021,1.53377 4.11518,3.08373 1.06171,0.59116 q 0.54308,0.30412 0.67137,0.45142 0.20432,0.2346 0.17298,0.54011 -0.0313,0.30551 -0.24956,0.49557 z m -7.3568,-4.55857 0.63011,3.87399 q 0.51284,-0.74405 1.64587,-2.15297 z"
         id="path3832" /><path
         d="m 159.0237,178.35441 q 0.25008,0.20846 0.50473,0.86339 0.36206,0.93285 0.38706,0.98194 1.7688,3.41462 3.01713,5.90564 1.26593,2.5151 -0.5453,4.68798 -0.20382,0.24452 -0.48913,0.27042 -0.28531,0.0259 -0.52983,-0.17792 -0.41679,-0.34742 -0.17774,-0.8263 0.30297,-0.51035 0.60595,-1.02071 0.32245,-0.74841 0.0206,-1.58399 l -0.42687,-1.19407 q -2.04065,-0.0716 -3.09753,-0.39688 -0.82438,-0.25392 -2.2092,-0.40046 -1.6803,-0.17622 -2.22496,-0.29116 -0.22508,-0.0463 -0.36957,-0.16678 -0.22785,-0.18993 -0.25096,-0.50117 -0.0287,-0.31588 0.16125,-0.54372 0.21772,-0.2612 0.64104,-0.23798 0.35292,0.0399 1.05968,0.12983 1.36443,0.14839 1.83869,0.22348 1.02078,0.15391 1.80811,0.39578 0.6558,0.20758 1.91465,0.26796 -0.68159,-1.28396 -2.04015,-3.85743 -0.21298,-0.53544 -0.6834,-1.58686 -0.23429,-0.48727 0.0529,-0.83182 0.19456,-0.23341 0.49469,-0.26579 0.30476,-0.0379 0.53816,0.15662 z m -5.01994,1.96589 q 1.35726,-1.62828 0.6673,-2.6084 -0.27136,-0.38631 -0.0166,-0.69196 0.14824,-0.17783 0.37148,-0.20837 0.22788,-0.0361 0.39089,0.11862 l 0.0685,0.076 q 0.78911,0.77079 0.45176,2.03423 -0.27061,0.98 -1.09979,1.97475 -0.65779,0.78913 -1.68694,0.93905 -1.05416,0.15733 -1.83773,-0.49582 -0.4168,-0.34742 -0.074,-0.75866 0.34743,-0.41679 0.76422,-0.0694 0.43346,0.36132 1.04948,0.24376 0.58081,-0.10922 0.95139,-0.5538 z"
         id="path3834" /></g><circle
       style="display:none;fill:none;fill-opacity:1;stroke:#000000;stroke-width:0.2;stroke-dasharray:none"
       id="circle15905"
       cx="-177.3765"
       cy="-23.047346"
       transform="rotate(-134.9102)"
       inkscape:label="circle15905"
       r="72" /><g
       aria-label="ШКОЛА ЮНЫХ"
       transform="matrix(1.4497735,0,0,1.4497735,-61.573051,-83.305834)"
       id="text15909"
       style="font-size:14.8167px;font-family:'Comic Sans MS';-inkscape-font-specification:'Comic Sans MS';stroke:#000000;stroke-width:0.2"><path
         d="m 67.140147,82.172414 q 0.475224,0.573977 -0.109898,1.058429 -1.220398,1.010427 -3.702717,2.981127 -2.477706,1.976273 -3.692531,2.982086 -0.111452,0.09228 -0.309369,0.28432 -0.193303,0.197615 -0.299182,0.285278 -0.568405,0.47061 -0.895986,0.07496 -0.05537,-0.06687 -0.188806,-0.341486 -0.189586,-0.387803 -0.567919,-0.844756 L 54.607363,85.28844 q -0.438313,-0.529396 -1.392955,-1.523595 -0.959256,-0.999771 -1.402183,-1.53474 -0.479838,-0.57955 0.07742,-1.040932 0.479243,-0.396788 0.994614,0.0782 1.025168,0.954592 3.678116,4.158832 2.080833,2.513239 2.176765,2.640449 0.456952,-0.378333 1.413341,-1.095033 0.956388,-0.7167 1.418913,-1.099647 -0.189167,-0.228476 -0.542333,-0.734443 -0.357781,-0.51154 -0.556175,-0.751161 -0.692074,-0.835889 -2.127332,-2.455956 -1.435259,-1.620066 -2.127332,-2.455955 -0.433699,-0.523824 -0.504104,-0.813058 -0.09407,-0.419921 0.368452,-0.802868 0.217332,-0.179939 0.505247,-0.127148 0.287916,0.05279 0.472469,0.275695 0.322968,0.390081 0.901073,1.235796 0.573491,0.840143 0.896459,1.230224 0.516748,0.62413 1.610584,1.831825 1.094794,1.197509 1.611542,1.821639 0.346037,0.417944 0.633831,0.799577 0.456953,-0.378334 1.391231,-1.133083 0.935236,-0.764935 1.397761,-1.147883 -0.189166,-0.228476 -0.562706,-0.736361 -0.367967,-0.512498 -0.566361,-0.752119 -0.692074,-0.835889 -2.127332,-2.455956 -1.435259,-1.620066 -2.127332,-2.455955 -0.433699,-0.523824 -0.504104,-0.813058 -0.09407,-0.419921 0.368453,-0.802868 0.217331,-0.179939 0.505246,-0.127148 0.287916,0.05279 0.472469,0.275694 0.322968,0.390082 0.901073,1.235797 0.573491,0.840142 0.896459,1.230224 2.64372,3.193095 3.71928,4.321995 0.08862,0.09569 0.331597,0.298403 0.219906,0.174848 0.330637,0.30859 z"
         id="path3778" /><path
         d="m 75.563979,77.240481 q 0.150692,0.255494 0.06042,0.543916 -0.08771,0.278515 -0.343205,0.429207 -0.429978,0.253604 -0.895939,-0.151917 -0.811117,-0.705907 -2.654633,-1.56724 -2.265206,-1.049384 -3.044152,-0.589957 -0.249262,0.147017 -0.701611,0.405415 0.360191,0.610694 0.699448,1.200137 0.464222,0.801316 0.695773,1.193905 0.874749,1.483113 0.954973,1.704576 0.231082,0.619648 -0.279906,0.921032 -0.623157,0.367541 -0.979672,-0.236921 -0.271981,-0.461136 -0.785904,-1.417924 -0.517599,-0.963019 -0.793255,-1.430387 -0.521909,-0.884883 -1.624367,-2.611662 -1.102458,-1.72678 -1.620692,-2.605431 -0.580716,-0.984588 0.06114,-1.363156 0.267957,-0.158043 0.545353,-0.08647 0.277396,0.07157 0.435438,0.339529 0.297709,0.504757 1.94301,3.137671 1.607744,-0.948258 1.437601,-3.728883 -0.117371,-1.879423 0.636649,-2.324149 0.261726,-0.154367 0.569795,-0.201678 0.394994,-0.05658 0.527309,0.167753 0.286682,0.486062 -0.04359,0.680859 -0.660546,0.389594 -0.393935,2.222991 0.242956,1.679363 -0.640309,2.645483 1.085912,-0.195312 3.408321,0.837132 2.318733,1.026212 2.82594,1.886169 z"
         id="path3780" /><path
         d="m 81.92393,75.594413 q -1.891207,0.76532 -3.664311,0.163862 -1.883434,-0.642662 -2.654182,-2.547282 -0.939009,-2.320416 -0.332229,-4.774678 0.683602,-2.727294 2.977193,-3.655448 2.206407,-0.892873 3.681089,-0.334549 1.53791,0.579565 2.438925,2.806092 0.939009,2.320416 0.432669,4.69501 -0.585563,2.718839 -2.879154,3.646993 z M 78.80675,66.15568 q -1.643069,0.664905 -2.120967,2.762631 -0.444992,1.928317 0.287761,3.739047 0.523783,1.294336 1.81118,1.717724 1.228162,0.392726 2.582856,-0.155482 1.629657,-0.659478 2.024364,-2.731343 0.351259,-1.851363 -0.389636,-3.682212 -0.648622,-1.60283 -1.629455,-1.962965 -0.936446,-0.346878 -2.566103,0.3126 z"
         id="path3782" /><path
         d="m 96.511207,69.569136 q 0.315981,1.374928 -0.494874,1.561276 -0.458309,0.105327 -0.706844,-0.297801 -0.141326,-0.227337 -0.272579,-0.798461 -0.150699,-0.655735 -0.430944,-1.972066 -0.280245,-1.316331 -0.430944,-1.972066 -0.163662,-0.712142 -0.523001,-2.114222 -0.360958,-1.409132 -0.52138,-2.107172 l -0.844489,0.201501 q -0.486513,0.111809 -1.467641,0.300172 -0.981128,0.188363 -1.467641,0.300172 -0.260884,0.05996 -0.703471,0.169093 0.357498,1.038761 0.666998,2.385485 0.15394,0.669837 0.419514,2.019233 0.271004,1.340725 0.424944,2.010561 0.35163,1.530048 0.0098,2.336088 -0.404309,0.954021 -1.885,1.294308 -0.296139,0.06806 -0.545987,-0.08238 -0.244418,-0.159104 -0.314095,-0.462294 -0.126393,-0.549971 0.337434,-0.760492 0.761104,-0.338228 0.850664,-0.433043 0.410353,-0.443202 0.151086,-1.571348 -0.15394,-0.669837 -0.424944,-2.010561 -0.265574,-1.349396 -0.419514,-2.019233 -0.361353,-1.572354 -0.799564,-2.703915 -0.146275,-0.151967 -0.194887,-0.363494 -0.06806,-0.296138 0.07532,-0.544366 0.150433,-0.249848 0.446572,-0.317906 0.260883,-0.05995 0.790753,-0.144612 0.536921,-0.08628 0.804855,-0.147852 l 4.456177,-1.024105 q 0.296139,-0.06806 0.554658,0.08781 0.265571,0.154243 0.333628,0.450382 0.335427,1.459539 1.062687,4.365653 0.72726,2.906115 1.062687,4.365654 z"
         id="path3784" /><path
         d="m 107.10204,70.040426 q -0.66372,0.04993 -1.28238,-1.61574 -0.23642,-0.635178 -0.6399,-2.237234 -0.72827,0.156363 -1.89909,0.505634 l -1.88916,0.541163 q -0.28962,0.972215 -1.02577,2.8559 -0.20047,0.421371 -0.597255,0.451223 -0.288574,0.02171 -0.535172,-0.170136 -0.239384,-0.19239 -0.262723,-0.502606 -0.02605,-0.346288 0.891255,-2.715188 -0.136755,-0.178345 -0.155209,-0.423632 -0.04396,-0.584361 0.650554,-0.803481 0.70628,-1.605741 1.81069,-3.705765 1.50409,-2.862866 1.92252,-2.894346 0.56993,-0.04288 0.83885,0.734958 l 0.63687,2.38982 1.45216,4.933087 0.49697,1.108926 q 0.25318,0.568621 0.26783,0.763408 0.0233,0.310216 -0.18456,0.536257 -0.20791,0.226041 -0.49648,0.247752 z m -3.16703,-8.054383 -1.81309,3.481036 q 0.85611,-0.289318 2.60695,-0.740269 z"
         id="path3786" /><path
         d="m 130.36538,66.104461 q -0.4401,2.464221 -2.13977,4.203742 -1.93572,1.99133 -4.37145,1.556317 -2.00841,-0.358695 -3.19649,-1.812894 -1.2537,-1.539412 -0.89119,-3.569189 l 0.008,-0.04273 q -0.47463,-0.09947 -1.43025,-0.262787 -0.71577,-0.02495 -2.11245,-0.105356 -0.0674,0.377467 -0.13483,0.754935 -0.0979,0.548396 -0.64181,2.729512 -0.16103,0.654716 -0.81625,0.537695 -0.30625,-0.0547 -0.47845,-0.283876 -0.18974,-0.254364 -0.0989,-0.598255 0.52912,-2.139656 0.61816,-2.638198 0.27601,-1.545479 0.72526,-3.567114 0.75426,-3.400254 0.78097,-3.549817 0.1506,-0.678626 0.82719,-0.55779 0.29912,0.05342 0.46674,0.267089 0.19102,0.247241 0.11572,0.586555 -0.36632,1.63959 -1.08089,4.899947 0.71831,0.0107 2.01732,0.103064 0.55043,0.127702 1.65231,0.295097 0.82443,-2.064867 2.43964,-3.290331 1.81793,-1.372986 3.86908,-1.006659 2.35027,0.419749 3.30154,1.677323 0.99349,1.30921 0.5712,3.673722 z m -1.45289,-0.259481 q 0.304,-1.702164 -0.33468,-2.529101 -0.60815,-0.792088 -2.34593,-1.102449 -1.73777,-0.31036 -3.266,1.209908 -1.39595,1.396906 -1.73938,3.319853 -0.24549,1.37455 0.61905,2.418207 0.82359,0.984898 2.26936,1.243107 1.73065,0.309088 3.16756,-1.234837 1.28277,-1.380375 1.63002,-3.324688 z"
         id="path3788" /><path
         d="m 143.35761,67.088134 q -0.21163,0.24356 -0.42481,0.78942 -0.079,0.20217 -0.22076,0.605035 -0.14181,0.402866 -0.22076,0.605036 -0.26319,0.673901 -0.90561,1.96085 -0.63568,1.289581 -0.89887,1.963482 -0.20003,0.512165 -0.52594,1.565445 -0.32592,1.05328 -0.52858,1.572184 -0.10791,0.276299 -0.37029,0.391298 -0.25565,0.117631 -0.53195,0.0097 -0.26956,-0.105276 -0.38456,-0.367661 -0.115,-0.262386 -0.007,-0.538685 0.20266,-0.518904 0.52858,-1.572184 0.32592,-1.05328 0.52594,-1.565445 0.19213,-0.491947 0.42322,-0.984213 -1.16027,-0.429838 -2.98483,-0.769605 l -3.0462,-0.552799 q -0.23687,0.606511 -0.79507,1.677812 -0.55556,1.064562 -0.79507,1.677812 -0.10791,0.276299 -0.37029,0.391298 -0.25828,0.12437 -0.53458,0.01646 -0.2763,-0.107908 -0.38867,-0.377032 -0.10826,-0.259754 -3.5e-4,-0.536053 0.27898,-0.714335 0.94625,-2.084784 0.67663,-1.374557 0.95561,-2.088892 0.14476,-0.370645 0.40994,-1.129202 0.26518,-0.758558 0.41257,-1.135942 0.20792,-0.532382 0.69115,-1.570826 0.48586,-1.045184 0.69378,-1.577565 0.11054,-0.283039 0.36619,-0.40067 0.26239,-0.114999 0.53868,-0.0071 0.2763,0.107908 0.38456,0.367662 0.115,0.262385 0.004,0.545424 -0.21055,0.53912 -0.70578,1.588411 -0.48586,1.045183 -0.69642,1.584304 l -0.62543,1.72076 3.10422,0.583225 q 1.85825,0.352926 3.04958,0.802663 0.45049,-0.934728 1.20848,-2.875562 0.20002,-0.512165 0.57379,-0.97201 0.504,-0.634221 0.90834,-0.476307 0.25608,0.100012 0.38456,0.367662 0.13111,0.26091 0.0206,0.543948 -0.0395,0.101085 -0.16856,0.252612 z"
         id="path3790" /><path
         d="m 149.24239,78.29836 q -0.94256,1.492571 -2.42767,1.581512 -1.2987,0.07831 -2.84633,-0.899015 -0.29362,-0.185421 -0.792,-0.534376 -0.55569,-0.393701 -0.78814,-0.540493 -0.1394,-0.03669 -0.25563,-0.110089 -0.65453,-0.413334 0.0292,-1.49606 0.10044,-0.159044 0.75779,-1.010293 0.88881,-1.150024 1.56096,-2.214399 0.45969,-0.727934 1.21456,-2.099445 0.76486,-1.373765 1.22454,-2.101699 0.49832,-0.789106 1.11003,-0.402812 0.66065,0.417197 0.24345,1.077843 -0.67987,1.076609 -1.65911,2.871163 0.54989,0.321587 0.7701,0.460652 1.87795,1.185921 2.37284,2.285642 0.60565,1.357911 -0.5146,3.131869 z m -1.2173,-0.768724 q 0.70691,-1.119429 0.33792,-1.917177 -0.28849,-0.627123 -1.46909,-1.37267 -0.33033,-0.208598 -1.05246,-0.596173 -0.1323,0.250155 -0.31,0.531542 -0.36312,0.575007 -1.9978,2.811301 0.78975,0.524396 1.1996,0.783213 2.24497,1.417697 3.29183,-0.240036 z m 9.62534,-0.689832 q -0.3915,-0.247227 -0.93464,-0.701454 l -0.90373,-0.750392 q -1.2648,1.691228 -2.28848,3.312258 -0.27041,0.428197 -0.64382,1.073709 -0.37342,0.645513 -0.64382,1.07371 -0.36312,0.575007 -0.70338,1.018983 l 1.94233,1.192356 q 0.25692,0.162243 0.31231,0.453918 0.0654,0.289421 -0.10073,0.552456 -0.16997,0.269152 -0.46326,0.34064 -0.2833,0.06923 -0.54022,-0.09301 -0.34255,-0.216324 -1.03926,-0.630621 -0.69284,-0.420415 -1.0354,-0.636739 -0.40372,-0.254954 -1.28071,-0.654754 -0.87474,-0.389819 -1.28458,-0.648636 -0.25692,-0.162243 -0.31843,-0.457781 -0.0593,-0.285558 0.10685,-0.548593 0.16611,-0.263035 0.45328,-0.338386 0.29328,-0.07149 0.5502,0.09076 0.39761,0.25109 1.39629,0.702071 0.37407,-0.456855 0.77582,-1.093033 0.26654,-0.42208 0.60615,-1.054713 0.34959,-0.634887 0.61227,-1.050849 0.89234,-1.41305 2.40019,-3.421403 l -0.81067,-0.477713 -0.80681,-0.48383 q -0.26304,-0.166106 -0.32841,-0.455527 -0.0654,-0.289421 0.10846,-0.56469 0.35926,-0.56889 0.96903,-0.260828 0.52639,0.263961 1.88438,1.121532 1.21731,0.768724 2.88633,2.19064 0.4942,0.423323 0.13109,0.99833 -0.18156,0.287504 -0.49771,0.327443 -0.27236,0.02481 -0.51092,-0.12585 z"
         id="path3792" /><path
         d="m 167.87416,85.073028 q -1.50785,0.199688 -2.40639,0.402203 l -1.56839,0.360647 q -0.89892,0.192291 -1.58773,0.253866 l -0.41789,2.790271 q -0.24522,1.657575 -0.29975,2.801214 -0.0192,0.307875 -0.19637,0.498789 -0.20668,0.222734 -0.52364,0.234579 -0.31165,0.01676 -0.53438,-0.189921 -0.20152,-0.187002 -0.22397,-0.513798 -0.048,-0.735385 0.11832,-1.765456 l 0.30312,-1.751886 0.27465,-1.965832 -3.7829,0.417808 -1.98954,0.186972 q -0.3374,0.01261 -0.54953,-0.184235 -0.21743,-0.201766 -0.22927,-0.518719 -0.0119,-0.316953 0.19484,-0.539687 0.17716,-0.190915 0.47252,-0.232668 l 1.94372,-0.180141 4.12937,-0.461471 q 0.14006,-1.320891 0.21079,-2.715981 l 0.15744,-1.403449 q 0.0914,-0.842977 0.0192,-1.403403 -0.0505,-0.392298 0.17587,-0.636245 0.20177,-0.217431 0.51303,-0.244421 0.31127,-0.02699 0.53931,0.184618 0.45077,0.418295 0.26007,2.027758 -0.0828,0.52526 -0.18845,1.53259 -0.0647,1.282241 -0.19267,2.515652 l 2.77404,-0.564401 q 2.69793,-0.546199 3.04794,-0.221406 0.21743,0.201766 0.22927,0.518719 0.0119,0.316953 -0.19484,0.539687 -0.17224,0.185612 -0.47782,0.227747 z"
         id="path3794" /></g><path
       style="display:inline;fill:#000000;fill-opacity:1;stroke:#000000;stroke-width:0.942353;stroke-dasharray:none"
       d="m 56.751236,97.685062 0.165305,-5.240144"
       id="path16006"
       sodipodi:nodetypes="cc" /></g></svg>
